<svg viewBox="0 0 20 20" fill="#eee" xmlns="http://www.w3.org/2000/svg">
    <path d="M0.2 16C0.0895432 16 0 15.9105 0 15.8V14.6C0 14.4895 0.089543 14.4 0.2 14.4H0.717157C0.770201 14.4 0.821071 14.3789 0.858579 14.3414L3.12929 12.0707C3.16834 12.0317 3.16834 11.9683 3.12929 11.9293L2.42929 11.2293C2.41054 11.2105 2.3851 11.2 2.35858 11.2H1.75C1.66716 11.2 1.6 11.1328 1.6 11.05V8.24142C1.6 8.15233 1.70771 8.10771 1.77071 8.17071L3.86928 10.2693C3.89334 10.2933 3.93254 10.2651 3.91732 10.2346L3.27236 8.94472C3.23912 8.87823 3.28747 8.8 3.3618 8.8H4.75858C4.7851 8.8 4.81054 8.78946 4.82929 8.77071L10.4 3.2C12.725 0.874978 14.2992 0.0515473 15.85 0.0023668C15.9328 -0.000259117 16.0003 0.0671802 15.9976 0.149981C15.9485 1.70075 15.125 3.27498 12.8 5.6L7.2 11.2V12.6382C7.2 12.7125 7.12177 12.7609 7.05528 12.7276L5.76535 12.0827C5.73491 12.0675 5.70666 12.1067 5.73072 12.1307L7.82929 14.2293C7.89229 14.2923 7.84767 14.4 7.75858 14.4H4.95C4.86716 14.4 4.8 14.3328 4.8 14.25V13.6414C4.8 13.6149 4.78946 13.5895 4.77071 13.5707L4.07071 12.8707C4.03166 12.8317 3.96834 12.8317 3.92929 12.8707L1.65858 15.1414C1.62107 15.1789 1.6 15.2298 1.6 15.2828V15.8C1.6 15.9105 1.51046 16 1.4 16H0.2Z"/>
</svg>
